<?xml version="1.0" encoding="UTF-8"?>
<svg width="148px" height="235px" viewBox="0 0 148 235" version="1.1" xmlns="http://www.w3.org/2000/svg" xmlns:xlink="http://www.w3.org/1999/xlink">
    <!-- Generator: Sketch 63.1 (92452) - https://sketch.com -->
    <title>Icon_man</title>
    <desc>Created with Sketch.</desc>
    <defs>
        <polygon id="path-1" points="0 0.801202959 69.9747249 0.801202959 69.9747249 149.999951 0 149.999951"></polygon>
        <polygon id="path-3" points="0.201615654 0.578 33.9412472 0.578 33.9412472 34.1618043 0.201615654 34.1618043"></polygon>
    </defs>
    <g id="Page-1" stroke="none" stroke-width="1" fill="none" fill-rule="evenodd" opacity="0.5">
        <g id="Gender-Ui-on-P82-Stage-1" transform="translate(-315.000000, -267.000000)">
            <g id="Icon_man" transform="translate(316.000000, 268.000000)">
                <g id="Group-7" transform="translate(38.000000, 23.000000)">
                    <g id="Group-3" transform="translate(0.000000, 38.422000)">
                        <mask id="mask-2" fill="white">
                            <use xlink:href="#path-1"></use>
                        </mask>
                        <g id="Clip-2"></g>
                        <path d="M54.2085,82.7032 C54.2085,102.1972 54.1955,121.6912 54.2185,141.1842 C54.2245,145.7962 52.2475,148.9362 47.6165,149.8162 C43.2305,150.6482 40.1145,148.6122 38.5335,144.5732 C37.9565,143.0992 38.0895,141.3042 38.0875,139.6552 C38.0605,119.8282 38.0875,100.0012 38.0375,80.1742 C38.0325,78.0772 39.0805,75.2602 35.0655,75.2882 C31.0155,75.3162 32.1965,78.1922 32.1905,80.2372 C32.1285,99.3972 32.1565,118.5582 32.1455,137.7192 C32.1445,139.3832 32.1795,141.0642 31.9685,142.7082 C31.3635,147.3972 28.0005,150.1912 23.4285,149.9412 C19.2195,149.7122 16.0675,146.6532 15.9485,142.1222 C15.7655,135.1292 15.8865,128.1282 15.8855,121.1302 C15.8835,89.6402 15.8845,58.1502 15.8845,26.6602 C15.8845,25.6602 15.9605,24.6532 15.8655,23.6622 C15.7345,22.2982 16.4605,20.0952 14.2675,20.1542 C12.1555,20.2112 12.7855,22.4112 12.7795,23.7622 C12.7265,36.9242 12.7465,50.0862 12.7415,63.2492 C12.7415,64.7482 12.8125,66.2562 12.6835,67.7452 C12.3425,71.6472 10.1765,73.9802 6.2455,73.9332 C2.2465,73.8852 0.1195,71.3162 0.1005,67.4852 C0.0105,49.1582 -0.0975,30.8282 0.1635,12.5042 C0.2635,5.4582 5.4585,0.8972 12.5775,0.8592 C27.5725,0.7792 42.5685,0.7802 57.5625,0.8732 C65.1505,0.9212 69.9235,5.8252 69.9435,13.4572 C69.9915,31.1182 69.9765,48.7792 69.9495,66.4402 C69.9425,71.2822 67.7985,73.9102 63.9605,73.9952 C60.0795,74.0812 57.5905,71.5312 57.5475,66.7452 C57.4225,52.9182 57.5365,39.0882 57.4225,25.2602 C57.4075,23.4952 58.3765,20.3142 55.8805,20.2962 C53.1875,20.2782 54.2905,23.4592 54.2825,25.2222 C54.1925,44.3822 54.2275,63.5432 54.2275,82.7032 L54.2085,82.7032 Z" id="Fill-1" fill="#F9FAFB" mask="url(#mask-2)"></path>
                    </g>
                    <g id="Group-6" transform="translate(18.000000, 0.422000)">
                        <mask id="mask-4" fill="white">
                            <use xlink:href="#path-3"></use>
                        </mask>
                        <g id="Clip-5"></g>
                        <path d="M33.9399,17.1891 C34.0549,26.5691 26.7939,34.0351 17.4349,34.1601 C7.7729,34.2901 0.2569,26.9681 0.201615654,17.3741 C0.1489,8.3831 7.5119,0.7981 16.5009,0.5831 C26.1259,0.3521 33.8239,7.6831 33.9399,17.1891" id="Fill-4" fill="#F6F9FA" mask="url(#mask-4)"></path>
                    </g>
                </g>
                <path d="M128.25,232.5 L17.251,232.5 C7.724,232.5 0,224.776 0,215.249 L0,17.251 C0,7.724 7.724,0 17.251,0 L128.25,0 C137.777,0 145.5,7.724 145.5,17.251 L145.5,215.249 C145.5,224.776 137.777,232.5 128.25,232.5 Z" id="Stroke-1" stroke="#FEFEFE" stroke-width="2" stroke-dasharray="10.088,10.088"></path>
            </g>
        </g>
    </g>
</svg>