<?xml version="1.0" encoding="UTF-8"?>
<svg width="148px" height="235px" viewBox="0 0 148 235" version="1.1" xmlns="http://www.w3.org/2000/svg" xmlns:xlink="http://www.w3.org/1999/xlink">
    <!-- Generator: Sketch 63.1 (92452) - https://sketch.com -->
    <title>Group 2</title>
    <desc>Created with Sketch.</desc>
    <defs>
        <polygon id="path-1" points="0.000454794056 0.613390362 85.403 0.613390362 85.403 149.99996 0.000454794056 149.99996"></polygon>
        <polygon id="path-3" points="0.91705401 0.55 34.4428417 0.55 34.4428417 34.1411301 0.91705401 34.1411301"></polygon>
        <polygon id="path-5" points="0.000206436053 0.613390362 85.403 0.613390362 85.403 149.99996 0.000206436053 149.99996"></polygon>
        <polygon id="path-7" points="0.91705401 0.55 34.4428417 0.55 34.4428417 34.1411301 0.91705401 34.1411301"></polygon>
    </defs>
    <g id="Page-1" stroke="none" stroke-width="1" fill="none" fill-rule="evenodd">
        <g id="Icons" transform="translate(-561.000000, -240.000000)">
            <g id="Group-2" transform="translate(562.000000, 241.000000)">
                <g id="Group-13" transform="translate(33.000000, 22.000000)">
                    <g id="Group-3" transform="translate(0.000000, 38.450000)">
                        <mask id="mask-2" fill="white">
                            <use xlink:href="#path-1"></use>
                        </mask>
                        <g id="Clip-2"></g>
                        <path d="M45.4662,115.526 C45.4662,124.024 45.3812,132.524 45.4962,141.021 C45.5702,146.463 48.3302,149.607 52.9262,149.952 C58.5352,150.375 61.9722,147.013 62.0052,140.682 C62.0882,124.685 62.2302,108.684 61.9272,92.693 C61.8322,87.703 62.8152,85.537 68.3212,86.049 C73.7812,86.557 73.9572,85.989 72.5372,80.419 C68.2222,63.494 63.8732,46.577 59.5292,29.659 C58.8252,26.919 58.0612,24.195 57.3612,21.455 C57.1032,20.446 57.0402,19.322 58.2952,19.004 C59.5922,18.674 59.9122,19.777 60.1932,20.749 C60.4692,21.709 60.7442,22.67 61.0092,23.633 C64.8982,37.748 68.8012,51.859 72.6612,65.982 C73.7962,70.137 76.2532,72.373 80.6812,71.451 C84.4992,70.657 86.2592,67.422 85.0002,62.797 C79.8892,44.015 74.6202,25.275 69.3442,6.538 C68.2792,2.752 65.6372,0.658 61.6412,0.644 C48.9772,0.601 36.3132,0.613390362 23.6492,0.625 C19.8462,0.629 17.1602,2.572 16.1542,6.101 C10.7722,24.978 5.4602,43.876 0.3352,62.824 C-0.9088,67.423 1.4422,71.199 5.2722,71.623 C9.4612,72.087 11.7322,69.809 12.7832,65.909 C16.5932,51.772 20.4032,37.633 24.3812,23.543 C24.8412,21.91 24.5132,18.532 27.1842,19.232 C29.4632,19.829 27.5762,22.41 27.1842,23.972 C22.4392,42.853 17.5942,61.708 12.7622,80.566 C11.3722,85.991 11.5052,86.543 17.1202,86.053 C22.3082,85.601 23.4592,87.363 23.3522,92.345 C23.0122,108.168 23.1822,124.003 23.2422,139.833 C23.2692,146.954 26.6432,150.505 32.5632,149.942 C37.1562,149.505 39.8312,146.205 39.8662,140.306 C39.9662,123.976 39.8632,107.645 40.0002,91.316 C40.0162,89.438 38.3662,86.249 42.5242,86.155 C47.0242,86.054 45.3382,89.483 45.3832,91.532 C45.5582,99.526 45.4542,107.527 45.4662,115.526" id="Fill-1" fill="#086596" mask="url(#mask-2)"></path>
                    </g>
                    <g id="Group-6" transform="translate(25.000000, 0.450000)">
                        <mask id="mask-4" fill="white">
                            <use xlink:href="#path-3"></use>
                        </mask>
                        <g id="Clip-5"></g>
                        <path d="M34.4428417,17.3449 C34.4228,7.8759 27.1288,0.5229 17.7828,0.549825882 C8.0208,0.5779 0.8328,7.8609 0.9178,17.6369 C0.9998,27.0299 8.3358,34.1879 17.8318,34.1411301 C27.2908,34.0949 34.4628,26.8429 34.4428417,17.3449" id="Fill-4" fill="#086596" mask="url(#mask-4)"></path>
                    </g>
                    <g id="Group-9" transform="translate(0.000000, 38.450000)">
                        <mask id="mask-6" fill="white">
                            <use xlink:href="#path-5"></use>
                        </mask>
                        <g id="Clip-8"></g>
                        <path d="M45.4604,115.526 C45.4544,107.527 45.5584,99.526 45.3834,91.532 C45.3384,89.483 47.0234,86.054 42.5234,86.155 C38.3664,86.249 40.0164,89.438 40.0004,91.316 C39.8634,107.645 39.9664,123.976 39.8664,140.306 C39.8314,146.205 37.1564,149.505 32.5634,149.942 C26.6434,150.505 23.2694,146.954 23.2424,139.833 C23.1824,124.003 23.0124,108.168 23.3524,92.345 C23.4594,87.363 22.3084,85.601 17.1204,86.053 C11.5044,86.543 11.3724,85.991 12.7624,80.566 C17.5944,61.708 22.4394,42.853 27.1844,23.972 C27.5764,22.41 29.4624,19.829 27.1844,19.232 C24.5134,18.532 24.8414,21.91 24.3814,23.543 C20.4034,37.633 16.5934,51.772 12.7834,65.909 C11.7324,69.809 9.4604,72.087 5.2724,71.623 C1.4414,71.199 -0.9096,67.423 0.3354,62.824 C5.4604,43.876 10.7724,24.978 16.1544,6.101 C17.1604,2.572 19.8464,0.629 23.6494,0.625 C36.3134,0.613390362 48.9774,0.601 61.6414,0.644 C65.6374,0.658 68.2784,2.752 69.3444,6.538 C74.6204,25.275 79.8894,44.015 85.0004,62.797 C86.2594,67.422 84.4994,70.657 80.6814,71.451 C76.2534,72.373 73.7964,70.137 72.6614,65.982 C68.8014,51.859 64.8984,37.748 61.0094,23.633 C60.7444,22.67 60.4694,21.709 60.1924,20.749 C59.9124,19.777 59.5924,18.674 58.2944,19.004 C57.0404,19.322 57.1034,20.446 57.3604,21.455 C58.0614,24.195 58.8254,26.919 59.5294,29.659 C63.8734,46.577 68.2224,63.494 72.5374,80.419 C73.9574,85.989 73.7814,86.557 68.3204,86.049 C62.8144,85.537 61.8324,87.703 61.9274,92.693 C62.2304,108.684 62.0874,124.685 62.0054,140.682 C61.9724,147.013 58.5354,150.375 52.9264,149.952 C48.3304,149.607 45.5704,146.463 45.4964,141.021 C45.3814,132.524 45.4664,124.024 45.4604,115.526" id="Fill-7" fill="#F6F9FA" mask="url(#mask-6)"></path>
                    </g>
                    <g id="Group-12" transform="translate(25.000000, 0.450000)">
                        <mask id="mask-8" fill="white">
                            <use xlink:href="#path-7"></use>
                        </mask>
                        <g id="Clip-11"></g>
                        <path d="M34.4428417,17.3449 C34.4628,26.8429 27.2908,34.0949 17.8318,34.1411301 C8.3358,34.1879 0.9998,27.0299 0.9178,17.6369 C0.8328,7.8609 8.0208,0.5779 17.7828,0.549825882 C27.1288,0.5229 34.4228,7.8759 34.4428417,17.3449" id="Fill-10" fill="#F8FAFB" mask="url(#mask-8)"></path>
                    </g>
                </g>
                <path d="M128.25,232.5 L17.251,232.5 C7.724,232.5 0,224.776 0,215.249 L0,17.251 C0,7.724 7.724,0 17.251,0 L128.25,0 C137.777,0 145.5,7.724 145.5,17.251 L145.5,215.249 C145.5,224.776 137.777,232.5 128.25,232.5 Z" id="Stroke-1" stroke="#FEFEFE" stroke-width="2" stroke-dasharray="10.088,10.088"></path>
            </g>
        </g>
    </g>
</svg>